<?xml version="1.0" standalone="no"?><!DOCTYPE svg PUBLIC "-//W3C//DTD SVG 1.1//EN" "http://www.w3.org/Graphics/SVG/1.1/DTD/svg11.dtd"><svg t="1589159278671" class="icon" viewBox="0 0 1024 1024" version="1.1" xmlns="http://www.w3.org/2000/svg" p-id="8516" xmlns:xlink="http://www.w3.org/1999/xlink" width="200" height="200"><defs><style type="text/css"></style></defs><path d="M105.2 816L917.5 816c17.7 0 32 14.3 32 32s-14.3 32-32 32l-812.3 0c-17.7 0-32-14.3-32-32.00000001s14.4-32 32-31.99999999zM105.2 480.7L695.8 480.7c17.7 0 32 14.3 32 32s-14.3 32-32 32l-590.6 0c-17.7 0-32-14.3-32-32s14.4-32 32-32zM106.5 144L918.8 144c17.7 0 32 14.3 32 32.00000001s-14.3 32-32 31.99999999l-812.3 0c-17.7 0-32-14.3-32-32s14.3-32 32-32zM778.4 338.7c8.20000001 0 16.4 3.1 22.6 9.4L938.7 485.8c6 6 9.4 14.1 9.4 22.6 0 8.5-3.4 16.6-9.4 22.6l-146.4 146.4c-12.5 12.5-32.8 12.5-45.3 0s-12.5-32.8 0-45.3L870.8 508.4l-115.1-115.1c-12.5-12.5-12.5-32.8 0-45.3 6.3-6.2 14.5-9.3 22.7-9.3z" p-id="8517"></path></svg>