<?xml version="1.0" standalone="no"?><!DOCTYPE svg PUBLIC "-//W3C//DTD SVG 1.1//EN" "http://www.w3.org/Graphics/SVG/1.1/DTD/svg11.dtd"><svg t="1589118993588" class="icon" viewBox="0 0 1024 1024" version="1.1" xmlns="http://www.w3.org/2000/svg" p-id="2889" xmlns:xlink="http://www.w3.org/1999/xlink" width="200" height="200"><defs><style type="text/css"></style></defs><path d="M298.7 896.8V199.4" fill="#FFF061" p-id="2890"></path><path d="M288.7 199.4h20v697.4h-20z" fill="#6D5346" p-id="2891"></path><path d="M546.9 589.2H294.7" fill="#FFF061" p-id="2892"></path><path d="M294.7 579.2h252.2v20H294.7z" fill="#6D5346" p-id="2893"></path><path d="M586.1 294.5h271.6v328.2H586.1v-66" fill="#FFF061" p-id="2894"></path><path d="M867.7 632.7H576.1v-76h20v56h251.6V304.5H586.1v-20h281.6z" fill="#6D5346" p-id="2895"></path><path d="M307.2 260.9c174 0 278.5 12.6 278.5 33.6v335.7c0-21-104.4-33.6-278.5-33.6" fill="#FFF061" p-id="2896"></path><path d="M576.1 631.8c-0.3-0.4-8-10.3-75.5-17.5-47.4-5.1-114.3-7.7-193.4-7.7v-20c85.8 0 156.9 3.1 205.7 9 28.9 3.5 49.4 7.7 62.8 13.1v-313c-2.2-2-14.7-10.6-75.1-17-47.4-5.1-114.3-7.7-193.4-7.7v-20c85.8 0 156.9 3.1 205.7 9 58.8 7.1 82.8 17.1 82.8 34.6v335.7h-20c0 0.7 0.3 1.3 0.4 1.5z" fill="#6D5346" p-id="2897"></path><path d="M298.7 169.4m-40 0a40 40 0 1 0 80 0 40 40 0 1 0-80 0Z" fill="#BBE4FF" p-id="2898"></path><path d="M298.7 219.4c-27.6 0-50-22.4-50-50s22.4-50 50-50 50 22.4 50 50-22.5 50-50 50z m0-80c-16.5 0-30 13.5-30 30s13.5 30 30 30 30-13.5 30-30-13.5-30-30-30z" fill="#6D5346" p-id="2899"></path></svg>