<?xml version="1.0" standalone="no"?><!DOCTYPE svg PUBLIC "-//W3C//DTD SVG 1.1//EN" "http://www.w3.org/Graphics/SVG/1.1/DTD/svg11.dtd"><svg t="1589118970143" class="icon" viewBox="0 0 1024 1024" version="1.1" xmlns="http://www.w3.org/2000/svg" p-id="2550" xmlns:xlink="http://www.w3.org/1999/xlink" width="200" height="200"><defs><style type="text/css"></style></defs><path d="M334.88 434.496c-1.12-12.736 4.128-22.4 7.232-28.128 0.64-1.12 1.376-2.624 1.76-3.52a391.68 391.68 0 0 1-5.76-36.864l-16.224-2.72-10.24-9.632c-41.536-25.76-86.144-7.744-109.888 1.984-34.4 11.264-56.128 60.256-40.896 132.768 2.624 12.352-6.72 17.856-6.112 24.64 1.376 14.72 1.6 50.24 15.488 58.976 1.28 0.736 11.136 3.264 11.008 2.624l4.128 43.136c3.52 9.6 11.744 10.624 14.112 24.128l-10.624 2.624c-4.736 10.24-13.504 30.72-22.368 36.992-7.488 1.984-15.008 4.128-22.4 6.112-26.24 10.752-55.232 23.744-81.472 34.88-23.872 10.144-52.48 13.76-61.12 39.008 0 17.12-1.6 57.6-1.12 80.128h118.24c0.128-7.36 0.384-14.624 0.512-21.76 0.352-15.488 0.736-30.24 0.736-39.36v-4.896l1.6-4.608c14.016-41.024 51.168-54.016 80.896-64.384 7.52-2.624 14.624-5.12 21.248-7.872 14.4-6.112 29.504-12.64 44.64-19.264 22.368-9.6 45.376-19.616 67.104-28.608a119.136 119.136 0 0 1-2.88-6.4c-4.736-0.736-9.472-1.344-14.24-1.984 0.768-15.872 10.496-16.64 14.272-28.736 3.36-10.624 0.352-24.512 5.76-34.4 3.744-6.848 12.096-6.848 16.224-12.736 3.744-5.376 6.24-14.624 7.52-21.12 0.608-3.52 1.248-7.36 1.6-11.52-22.624-21.12-25.504-61.984-27.36-89.984-0.896-3.616-1.12-6.88-1.376-9.504zM1022.72 761.632c-8.64-25.28-37.248-28.896-61.12-39.008-26.24-11.136-55.36-24.128-81.504-34.88-7.488-1.984-15.008-4.128-22.4-6.112-8.864-6.272-17.6-26.752-22.368-36.992-4.736-0.768-9.472-1.376-14.24-2.016 0.768-15.872 10.496-16.64 14.24-28.736 3.392-10.624 0.384-24.512 5.632-34.4 3.744-6.848 12.16-6.848 16.256-12.736 3.744-5.376 6.24-14.624 7.488-21.12 2.144-11.872 4-28.256-1.6-40.128-3.264-6.752-5.248-7.52-6.144-15.744-1.12-10.016 2.88-42.624 3.136-49.76 0.384-18.368 0-34.88-4.384-52.736 0 0-5.376-16.128-13.76-21.024l-16.608-2.88-10.24-9.6c-41.504-25.76-86.144-7.776-109.888 1.984-13.248 4.384-24.64 14.4-32.736 29.12a83.104 83.104 0 0 0-0.128 11.008c0.128 1.12 0.256 1.76 0.256 2.016 0.224 0.48 0.64 0.96 0.864 1.6 1.248 2.144 2.88 5.024 4.736 8.896 11.776 24.64 8.256 54.112 4.64 74.24-1.76 9.888-6.144 28.48-15.52 41.504-2.368 3.36-5.12 6.112-7.744 8.512 1.504 15.616 4.64 33.6 14.016 39.488 1.248 0.736 11.104 3.232 11.008 2.624l4.096 43.136c3.52 9.6 11.776 10.624 14.144 24.096l-10.624 2.656c-0.896 1.728-1.76 3.84-2.88 6.24 21.76 8.992 44.992 19.008 67.52 28.736 15.232 6.624 30.24 13.12 44.736 19.264 6.624 2.752 13.632 5.248 21.248 7.872 29.76 10.368 66.752 23.232 80.864 64.384l1.632 4.608v4.896c0 9.12 0.384 23.744 0.736 39.36 0.128 7.136 0.384 14.4 0.512 21.76h117.76c0-22.496-1.632-63.04-1.632-80.128zM641.248 254.88c6.112 24.992 6.752 48.256 6.24 73.984-0.224 9.888-5.856 55.776-4.352 69.76 1.248 11.616 4.128 12.48 8.64 22.016 7.84 16.64 5.216 39.488 2.24 56.224-1.632 9.12-5.12 22.272-10.528 29.76-5.856 8.256-17.6 8.256-22.72 17.888-7.52 13.856-3.264 33.248-8 48.224-5.408 17.024-19.008 18.144-20.032 40.384 6.752 0.992 13.376 1.888 20 2.88 6.752 14.4 19.008 43.264 31.52 51.872l31.488 8.64c36.768 15.232 77.504 33.376 114.368 48.96 33.504 14.272 73.632 19.392 85.76 54.784 0 24 2.24 80.864 1.6 112.384H147.168c-0.64-31.52 1.6-88.384 1.6-112.384 12.16-35.52 52.256-40.512 85.76-54.752 36.864-15.616 77.632-33.888 114.368-48.992l31.52-8.64c12.48-8.64 24.736-37.504 31.488-51.872l14.88-3.616c-3.392-19.008-15.008-20.384-19.872-33.888-1.888-20.128-3.744-40.384-5.76-60.48 0.128 0.96-13.76-2.528-15.488-3.648-19.392-12.256-19.872-62.112-21.632-82.752-0.864-9.504 12.256-17.248 8.64-34.624-21.28-101.632 9.248-170.368 57.376-186.112 33.472-13.632 95.872-39.008 154.24-2.88l14.496 13.504 23.36 4.128c11.648 6.624 19.136 29.248 19.136 29.248z" fill="#666666" p-id="2551"></path></svg>